<?xml version="1.0" encoding="iso-8859-1"?>
<!-- Generator: Adobe Illustrator 17.1.0, SVG Export Plug-In . SVG Version: 6.00 Build 0)  -->
<!DOCTYPE svg PUBLIC "-//W3C//DTD SVG 1.1//EN" "http://www.w3.org/Graphics/SVG/1.1/DTD/svg11.dtd">
<svg version="1.1" id="Capa_1" xmlns="http://www.w3.org/2000/svg" xmlns:xlink="http://www.w3.org/1999/xlink" x="0px" y="0px"
	 viewBox="0 0 98.23 98.23" style="enable-background:new 0 0 98.23 98.23;" xml:space="preserve">
<g>
	<path d="M50.232,36.322l3.992,4.428c0.886,0.982,2.529,1.695,3.907,1.695c0.079,0,0.157-0.002,0.234-0.007l13.045-0.819
		c0.813-0.052,1.538-0.42,2.038-1.039c0.5-0.618,0.71-1.403,0.591-2.21l-0.118-0.799l1.794-0.731
		c1.583,2.448,4.424,3.974,7.625,3.974c1.337,0,2.656-0.262,3.92-0.777c4.923-2.008,7.438-7.303,5.604-11.805
		c-1.313-3.22-4.585-5.3-8.338-5.3c-1.336,0-2.655,0.261-3.919,0.776c-4.404,1.795-6.87,6.22-6.029,10.356l-2.074,0.845
		c-0.552-0.413-1.217-0.675-1.921-0.687l-10.252-0.178c-0.78-0.013-1.9-0.607-2.349-1.246l-5.979-8.505
		c-0.279-0.397-0.619-0.675-0.986-0.848c-0.431-0.244-0.936-0.37-1.506-0.326l-13.501,1.031c-1.025,0.078-2.025,0.677-2.687,1.509
		c-0.039,0.036-0.085,0.063-0.123,0.101L13.729,45.504c-0.75,0.76-1.155,1.767-1.142,2.834c0.013,1.068,0.443,2.065,1.211,2.808
		l0.513,0.495c0.745,0.719,1.727,1.114,2.766,1.114c1.085,0,2.135-0.448,2.882-1.23l8.847-9.274l-4.439,17.675
		c-0.327,1.301-1.135,3.402-1.765,4.59L20.7,68.1c-0.605,1.139-1.984,2.758-3.013,3.534L6.802,79.859
		c-1.441,1.089-2.304,3.333-1.963,5.107l0.501,2.606c0.267,1.39,1.245,2.287,2.492,2.287c0.567,0,1.152-0.194,1.692-0.563
		l15.378-10.5c1.343-0.918,2.876-2.816,3.491-4.322l4.818-11.819l1.445-0.176l-5.412,29.791c-0.492,2.71,1.31,5.325,4.019,5.832
		l0.236,0.044c0.301,0.056,0.609,0.084,0.914,0.084c2.408,0,4.478-1.716,4.921-4.081l6.857-36.595
		c0.02-0.105,0.014-0.206,0.026-0.311L50.232,36.322z"/>
	<path d="M43.22,20.236c1.201,0,2.385-0.214,3.52-0.636c2.533-0.94,4.548-2.812,5.674-5.268c1.126-2.457,1.228-5.205,0.287-7.738
		C51.235,2.65,47.424,0,43.217,0c-1.201,0-2.386,0.214-3.521,0.636c-2.533,0.94-4.548,2.812-5.674,5.268
		c-1.126,2.457-1.228,5.204-0.287,7.737C35.201,17.585,39.013,20.236,43.22,20.236z"/>
	<path d="M85.659,19.333c2.101,0,3.811-1.709,3.811-3.811s-1.709-3.811-3.811-3.811c-2.102,0-3.811,1.709-3.811,3.811
		S83.557,19.333,85.659,19.333z"/>
	<path d="M88.783,47.86H55.229c-1.104,0-2,0.896-2,2c0,0.749,0.417,1.394,1.027,1.737c-0.008,0.088-0.027,0.173-0.027,0.263v44.727
		c0,0.553,0.448,1,1,1s1-0.447,1-1V51.86h32.554c1.104,0,2-0.896,2-2S89.888,47.86,88.783,47.86z"/>
</g>
<g>
</g>
<g>
</g>
<g>
</g>
<g>
</g>
<g>
</g>
<g>
</g>
<g>
</g>
<g>
</g>
<g>
</g>
<g>
</g>
<g>
</g>
<g>
</g>
<g>
</g>
<g>
</g>
<g>
</g>
</svg>
