<?xml version="1.0" standalone="no"?>
<!DOCTYPE svg PUBLIC "-//W3C//DTD SVG 20010904//EN"
 "http://www.w3.org/TR/2001/REC-SVG-20010904/DTD/svg10.dtd">
<svg version="1.0" xmlns="http://www.w3.org/2000/svg"
 width="1280.000000pt" height="721.000000pt" viewBox="0 0 1280.000000 721.000000"
 preserveAspectRatio="xMidYMid meet">
<metadata>
Created by potrace 1.15, written by Peter Selinger 2001-2017
</metadata>
<g transform="translate(0.000000,721.000000) scale(0.100000,-0.100000)"
fill="#000000" stroke="none">
<path d="M4375 7140 c-159 -37 -632 -147 -1050 -243 -2352 -544 -3317 -767
-3321 -767 -2 0 -4 -22 -4 -49 l0 -49 253 -85 c138 -47 343 -116 454 -154
l203 -68 0 -1322 0 -1323 60 0 60 0 0 940 c0 517 3 940 7 940 3 0 530 -172
1170 -382 l1163 -382 0 -1008 0 -1008 65 0 65 0 0 1335 c0 734 2 1335 4 1335
2 0 258 -85 567 -190 310 -104 564 -190 566 -190 2 0 3 -630 3 -1400 l0 -1400
65 0 65 0 0 990 c0 545 3 990 8 990 4 0 601 -233 1327 -518 l1320 -518 5
-1275 5 -1274 63 -3 62 -3 0 1711 c0 940 3 1710 8 1710 4 0 95 -30 203 -67
l197 -67 158 56 c88 31 167 60 177 63 16 7 17 -7 17 -209 l0 -216 65 0 65 0 0
238 0 239 1038 366 c570 202 1043 367 1051 367 7 0 213 -64 457 -142 l444
-142 0 -1068 0 -1068 65 0 65 0 0 1394 0 1395 53 19 c28 10 305 108 615 217
l562 199 0 47 0 46 -117 31 c-65 17 -307 79 -538 137 -231 58 -487 124 -570
145 -82 21 -508 130 -945 241 -437 111 -916 233 -1065 270 -148 38 -424 108
-612 156 l-343 87 0 338 c0 187 -4 337 -8 334 -4 -2 -304 -79 -665 -169 l-658
-165 -187 48 c-103 26 -403 103 -667 170 -264 67 -529 134 -590 150 -345 90
-1144 290 -1156 289 -8 0 -144 -31 -304 -69z m4160 -622 c-4 -150 -9 -275 -11
-277 -4 -4 -1062 263 -1069 271 -3 2 1050 273 1078 277 5 0 6 -122 2 -271z
m-7264 -914 c298 -101 1991 -672 2052 -692 l47 -16 0 -283 c0 -156 -1 -283 -2
-283 -2 0 -527 173 -1168 383 l-1165 383 -3 292 c-1 161 1 292 6 292 5 0 109
-34 233 -76z m10169 -1270 c0 -185 -3 -235 -12 -231 -7 2 -165 53 -351 113
-276 88 -334 110 -315 117 61 23 664 236 671 237 4 0 7 -106 7 -236z m-5580
-276 l1045 -353 3 -142 3 -143 59 0 60 0 0 121 c0 93 3 120 13 117 6 -3 96
-33 200 -67 l187 -63 0 -390 c0 -308 -3 -389 -12 -385 -80 31 -2540 996 -2585
1014 l-63 25 0 315 0 315 23 -6 c12 -3 492 -164 1067 -358z"/>
</g>
</svg>
